<svg xmlns="http://www.w3.org/2000/svg" version="1.1" xmlns:xlink="http://www.w3.org/1999/xlink" xmlns:svgjs="http://svgjs.dev/svgjs" width="300" height="300" viewBox="0 0 1000 623"><g transform="matrix(1,0,0,1,-0.6060606060606233,0.2522267206477409)"><svg viewBox="0 0 396 247" data-background-color="#c53683" preserveAspectRatio="xMidYMid meet" height="623" width="1000" xmlns="http://www.w3.org/2000/svg" xmlns:xlink="http://www.w3.org/1999/xlink"><g id="tight-bounds" transform="matrix(1,0,0,1,0.2400000000000091,-0.09999999999999432)"><svg viewBox="0 0 395.52 247.2" height="247.2" width="395.52"><g><svg></svg></g><g><svg viewBox="0 0 395.52 247.2" height="247.2" width="395.52"><g><path xmlns="http://www.w3.org/2000/svg" d="M55.039 247.2l86.536-149.886v9.716l-77.968 135.046h268.306l-77.968-135.046v-9.716l86.536 149.886zM197.76 0l26.403 45.732-5.609 0-20.794-36.016-20.794 36.016-5.609 0z" fill="#ef86c1" fill-rule="nonzero" stroke="none" stroke-width="1" stroke-linecap="butt" stroke-linejoin="miter" stroke-miterlimit="10" stroke-dasharray="" stroke-dashoffset="0" font-family="none" font-weight="none" font-size="none" text-anchor="none" style="mix-blend-mode: normal" data-fill-palette-color="tertiary"></path></g><g transform="matrix(1,0,0,1,163.82349871983354,67.97999999999999)"><svg viewBox="0 0 67.87300256033288 111.24" height="111.24" width="67.87300256033288"><g><svg viewBox="0 0 67.87300256033288 111.24" height="111.24" width="67.87300256033288"><g><svg viewBox="0 0 91.19764163323441 149.4677599722095" height="111.24" width="67.87300256033288"><g><svg viewBox="0 0 91.19764163323441 149.4677599722095" height="149.4677599722095" width="91.19764163323441"><g id="textblocktransform"><svg viewBox="0 0 91.19764163323441 149.4677599722095" height="149.4677599722095" width="91.19764163323441" id="textblock"><g><svg viewBox="0 0 91.19764163323441 110.5525368" height="110.5525368" width="91.19764163323441"><g transform="matrix(1,0,0,1,0,0)"><svg width="91.19764163323441" viewBox="3.25 -33.70000076293945 27.799999237060547 33.70000076293945" height="110.5525368" data-palette-color="#ef86c1"><path d="M31.05-33.7L31.05 0 23.3 0 23.3-13.45 10.95-13.45 10.95 0 3.25 0 3.25-33.7 10.95-33.7 10.95-20 23.3-20 23.3-33.7 31.05-33.7Z" opacity="1" transform="matrix(1,0,0,1,0,0)" fill="#ef86c1" class="wordmark-text-0" data-fill-palette-color="primary" id="text-0"></path></svg></g></svg></g><g transform="matrix(1,0,0,1,0,136.6513374775968)"><svg viewBox="0 0 91.19764163323441 12.816422494612718" height="12.816422494612718" width="91.19764163323441"><g transform="matrix(1,0,0,1,0,0)"><svg width="91.19764163323441" viewBox="1.5 -38.599998474121094 362.8599853515625 51" height="12.816422494612718" data-palette-color="#d498ca"><path d="M1.5-2.4L1.5-2.4 2.2-8.9 3.9-8.8Q3.9-6.05 7.18-4.38 10.45-2.7 14.63-2.7 18.8-2.7 20.9-3.98 23-5.25 23-7.2L23-7.2Q23-10.5 19.5-13.1L19.5-13.1Q18.05-14.15 16.45-14.95L16.45-14.95Q12.8-16.85 11.88-17.38 10.95-17.9 9.8-18.45 8.65-19 7.68-19.63 6.7-20.25 5.6-21.15L5.6-21.15Q3.1-23.15 3.1-25.63 3.1-28.1 3.98-29.95 4.85-31.8 6.18-32.85 7.5-33.9 9.3-34.6L9.3-34.6Q12.35-35.7 16.13-35.7 19.9-35.7 23.4-33.8L23.4-33.8 22.8-28 21.1-28Q21.1-32.7 13.2-32.7L13.2-32.7Q9.55-32.7 7.73-31.55 5.9-30.4 5.9-28.4L5.9-28.4Q5.9-25.2 16.3-20.7L16.3-20.7Q23.15-17.75 25.05-14.15L25.05-14.15Q26-12.35 26-10.2L26-10.2Q26-5 21.83-2.15 17.65 0.7 11.75 0.7 5.85 0.7 1.5-2.4ZM34.32-34.8Q35.45-34.8 36.07-34.05 36.7-33.3 36.7-32.13 36.7-30.95 35.75-30.18 34.8-29.4 33.67-29.4 32.55-29.4 31.92-30.15 31.3-30.9 31.3-32.02 31.3-33.15 32.25-33.98 33.2-34.8 34.32-34.8ZM39.8-1.4L39.8 0 29.7 0 29.7-1.4 30.5-1.4Q31.85-1.4 32.22-1.85 32.6-2.3 32.6-3.3L32.6-3.3 32.6-18.3Q32.6-19.25 31.97-19.68 31.35-20.1 29.7-20.1L29.7-20.1 29.7-21.5Q30.7-21.5 32.72-22.23 34.75-22.95 35.8-23.6L35.8-23.6 36.7-23.8 36.7-3.6Q36.7-2.8 36.77-2.45 36.85-2.1 37.35-1.75 37.85-1.4 38.9-1.4L38.9-1.4 39.8-1.4ZM43.8-1.4L43.8-1.4 44.3-6.8 45.7-6.7Q45.7-5 47.89-3.45 50.09-1.9 52.64-1.9L52.64-1.9Q57.89-1.9 57.89-5.1L57.89-5.1Q57.89-6.7 56.55-7.95 55.2-9.2 53.3-10.03 51.39-10.85 49.49-11.73 47.59-12.6 46.24-14.03 44.89-15.45 44.89-17.3L44.89-17.3Q44.89-23.8 54.49-23.8L54.49-23.8Q56.64-23.8 59.2-22.6L59.2-22.6 58.89-17.6 57.7-17.6Q57.7-19 56.07-20.3 54.45-21.6 52.55-21.6 50.64-21.6 49.32-20.85 47.99-20.1 47.99-18.63 47.99-17.15 49.34-16.2 50.7-15.25 52.59-14.65 54.49-14.05 56.39-13.3 58.3-12.55 59.64-10.85 61-9.15 61-6.6 61-4.05 59.34-2.35L59.34-2.35Q56.39 0.7 50.8 0.7L50.8 0.7Q46.45 0.7 43.8-1.4ZM79.39-3.1L79.39-3.1 79.79-1.9Q76.04 0.7 71.59 0.7L71.59 0.7Q69.99 0.7 68.84-0.45 67.69-1.6 67.69-3.5L67.69-3.5 67.69-21.2 64.79-21.2 64.79-23.3 65.89-23.3Q67.54-23.3 68.97-25.3 70.39-27.3 70.39-29L70.39-29 71.69-29 71.69-23.3 78.49-23.3 78.49-21.2 73.59-21.2Q71.69-21.2 71.69-19.4L71.69-19.4 71.69-5.1Q71.69-1.8 74.09-1.8L74.09-1.8Q76.79-1.8 79.39-3.1ZM101.29-6.1L101.29-6.1 102.19-5.2Q98.99 0.7 90.69 0.7L90.69 0.7Q86.84 0.7 84.12-2.7 81.39-6.1 81.39-10.3L81.39-10.3Q81.39-15.95 85.07-19.98 88.74-24 93.99-24L93.99-24Q96.49-24 98.39-22.55L98.39-22.55Q101.79-19.9 101.79-15.7L101.79-15.7Q101.79-15.1 101.57-14.25 101.34-13.4 101.19-13.4L101.19-13.4 85.09-12.9Q85.09-9 87.54-5.7 89.99-2.4 93.49-2.4L93.49-2.4Q95.99-2.4 98.12-3.43 100.24-4.45 101.29-6.1ZM85.59-14.9L85.59-14.9 97.29-15.4Q97.39-15.4 97.39-16.3L97.39-16.3Q97.39-18.9 95.87-20 94.34-21.1 91.67-21.1 88.99-21.1 87.29-19.45 85.59-17.8 85.59-14.9ZM116.84-1.4L116.84 0 106.04 0 106.04-1.4 106.84-1.4Q108.19-1.4 108.56-1.85 108.94-2.3 108.94-3.3L108.94-3.3 108.94-18.3Q108.94-19.25 108.31-19.68 107.69-20.1 106.04-20.1L106.04-20.1 106.04-21.5Q107.04-21.5 109.06-22.23 111.09-22.95 112.14-23.6L112.14-23.6 113.04-23.8 113.04-17.6Q114.84-21.55 117.14-22.83 119.44-24.1 123.94-24.1L123.94-24.1 123.64-18.3 122.14-18.3Q122.14-19 121.61-19.65 121.09-20.3 119.94-20.3L119.94-20.3Q117.44-20.3 115.24-17.6 113.04-14.9 113.04-12.4L113.04-12.4 113.04-3.6Q113.04-2.8 113.11-2.45 113.19-2.1 113.69-1.75 114.19-1.4 115.24-1.4L115.24-1.4 116.84-1.4ZM126.29-1.4L126.29-1.4 126.79-6.8 128.19-6.7Q128.19-5 130.39-3.45 132.59-1.9 135.14-1.9L135.14-1.9Q140.39-1.9 140.39-5.1L140.39-5.1Q140.39-6.7 139.03-7.95 137.69-9.2 135.78-10.03 133.89-10.85 131.99-11.73 130.09-12.6 128.74-14.03 127.39-15.45 127.39-17.3L127.39-17.3Q127.39-23.8 136.99-23.8L136.99-23.8Q139.14-23.8 141.69-22.6L141.69-22.6 141.39-17.6 140.19-17.6Q140.19-19 138.56-20.3 136.94-21.6 135.03-21.6 133.14-21.6 131.81-20.85 130.49-20.1 130.49-18.63 130.49-17.15 131.84-16.2 133.19-15.25 135.09-14.65 136.99-14.05 138.89-13.3 140.78-12.55 142.14-10.85 143.49-9.15 143.49-6.6 143.49-4.05 141.84-2.35L141.84-2.35Q138.89 0.7 133.28 0.7L133.28 0.7Q128.94 0.7 126.29-1.4ZM169.78 0.7L169.78 0.7Q165.38 0.7 162.43-2.6 159.48-5.9 159.48-10.3L159.48-10.3Q159.48-15.9 163.71-19.95 167.93-24 172.63-24 177.33-24 180.21-20.68 183.08-17.35 183.08-13L183.08-13Q183.08-7.55 179.06-3.43 175.03 0.7 169.78 0.7ZM162.98-13Q162.98-8.35 165.81-5.28 168.63-2.2 172.16-2.2 175.68-2.2 177.68-4.85 179.68-7.5 179.68-10.3L179.68-10.3Q179.68-14.55 177.06-17.73 174.43-20.9 170.68-20.9 166.93-20.9 164.96-18.38 162.98-15.85 162.98-13L162.98-13ZM200.08-38.6L200.08-38.6Q201.98-38.6 204.38-37.4L204.38-37.4 203.98-32.9 202.58-33Q202.58-34 201.58-35.3 200.58-36.6 198.98-36.6L198.98-36.6Q196.28-36.6 194.93-33.95 193.58-31.3 193.58-25.4L193.58-25.4Q193.58-23.4 195.58-23.4L195.58-23.4 200.48-23.4 200.48-21.3 193.68-21.3 193.68-3.7Q193.68-2.9 193.75-2.53 193.83-2.15 194.33-1.78 194.83-1.4 195.88-1.4L195.88-1.4 197.48-1.4 197.48 0 186.68 0 186.68-1.4 187.28-1.4Q188.38-1.4 188.9-1.78 189.43-2.15 189.5-2.53 189.58-2.9 189.58-3.7L189.58-3.7 189.58-19.5Q189.58-20.45 189.23-20.88 188.88-21.3 187.78-21.3L187.78-21.3 186.68-21.3 186.68-23.4 189.58-23.4 189.58-25.6Q189.58-38.6 200.08-38.6ZM215.67-2.4L215.67-2.4 216.37-8.9 218.07-8.8Q218.07-6.05 221.35-4.38 224.62-2.7 228.8-2.7 232.97-2.7 235.07-3.98 237.17-5.25 237.17-7.2L237.17-7.2Q237.17-10.5 233.67-13.1L233.67-13.1Q232.22-14.15 230.62-14.95L230.62-14.95Q226.97-16.85 226.05-17.38 225.12-17.9 223.97-18.45 222.82-19 221.85-19.63 220.87-20.25 219.77-21.15L219.77-21.15Q217.27-23.15 217.27-25.63 217.27-28.1 218.15-29.95 219.02-31.8 220.35-32.85 221.67-33.9 223.47-34.6L223.47-34.6Q226.52-35.7 230.3-35.7 234.07-35.7 237.57-33.8L237.57-33.8 236.97-28 235.27-28Q235.27-32.7 227.37-32.7L227.37-32.7Q223.72-32.7 221.9-31.55 220.07-30.4 220.07-28.4L220.07-28.4Q220.07-25.2 230.47-20.7L230.47-20.7Q237.32-17.75 239.22-14.15L239.22-14.15Q240.17-12.35 240.17-10.2L240.17-10.2Q240.17-5 236-2.15 231.82 0.7 225.92 0.7 220.02 0.7 215.67-2.4ZM240.97 11.6L240.97 11.6 241.77 7.7 242.47 7.7Q242.57 8.25 243.37 8.93 244.17 9.6 245.07 9.6L245.07 9.6Q248.17 9.6 249.47 7.5 250.77 5.4 252.17-0.1L252.17-0.1 244.57-19.8Q244.12-20.85 243.62-21.33 243.12-21.8 242.07-21.8L242.07-21.8 241.37-21.8 241.37-23.3 251.17-23.3 251.17-21.8 250.87-21.8Q248.77-21.8 248.77-20.6L248.77-20.6Q248.77-20.35 249.27-19L249.27-19 254.37-5.4 259.97-19.5Q260.57-20.7 260.57-21L260.57-21Q260.57-21.45 260-21.63 259.42-21.8 257.67-21.8L257.67-21.8 257.27-21.8 257.27-23.3 266.57-23.3 266.57-21.8 266.07-21.8Q264.37-21.8 263.72-21.3 263.07-20.8 262.57-19.4L262.57-19.4 252.47 5.9Q251.12 9.2 249.25 10.8 247.37 12.4 244.17 12.4L244.17 12.4Q242.97 12.4 240.97 11.6ZM294.17-1.4L294.17 0 285.57 0 285.57-1.4 285.77-1.4Q286.32-1.4 286.69-1.95 287.07-2.5 287.07-3.3L287.07-3.3 287.07-16Q287.07-18.25 285.99-19.43 284.92-20.6 282.97-20.6L282.97-20.6Q280.17-20.6 278.02-17.6 275.87-14.6 275.87-13.1L275.87-13.1 275.87-3.6Q275.87-2.8 275.94-2.45 276.02-2.1 276.52-1.75 277.02-1.4 278.07-1.4L278.07-1.4 278.97-1.4 278.97 0 268.87 0 268.87-1.4 269.67-1.4Q271.02-1.4 271.39-1.85 271.77-2.3 271.77-3.3L271.77-3.3 271.77-18.3Q271.77-19.25 271.14-19.68 270.52-20.1 268.87-20.1L268.87-20.1 268.87-21.5Q269.87-21.5 271.89-22.23 273.92-22.95 274.97-23.6L274.97-23.6 275.87-23.8 275.87-17.4Q277.02-20.55 279.42-22.28 281.82-24 285.27-24L285.27-24Q287.07-24 288.32-23.2 289.57-22.4 290.12-21.15L290.12-21.15Q291.07-19 291.07-16.9L291.07-16.9 291.07-3.4Q291.07-2.7 291.17-2.35L291.17-2.35Q291.42-1.4 293.27-1.4L293.27-1.4 294.17-1.4ZM312.02-3.1L312.02-3.1 312.42-1.9Q308.67 0.7 304.22 0.7L304.22 0.7Q302.62 0.7 301.47-0.45 300.32-1.6 300.32-3.5L300.32-3.5 300.32-21.2 297.42-21.2 297.42-23.3 298.52-23.3Q300.17-23.3 301.59-25.3 303.02-27.3 303.02-29L303.02-29 304.32-29 304.32-23.3 311.12-23.3 311.12-21.2 306.22-21.2Q304.32-21.2 304.32-19.4L304.32-19.4 304.32-5.1Q304.32-1.8 306.72-1.8L306.72-1.8Q309.42-1.8 312.02-3.1ZM336.66-1.4L336.66 0 329.46 0 329.46-4Q326.96-1.3 325.31-0.3 323.66 0.7 320.84 0.7 318.01 0.7 316.44-0.63 314.86-1.95 314.86-4.35 314.86-6.75 316.94-9.03 319.01-11.3 321.79-12.48 324.56-13.65 326.66-14.28 328.76-14.9 329.46-14.9L329.46-14.9 329.46-16Q329.46-20.7 325.56-20.7L325.56-20.7Q322.86-20.7 320.54-19.55 318.21-18.4 317.06-16.6L317.06-16.6 316.06-17.5Q319.41-24 327.66-24L327.66-24Q329.76-24 331.14-22.88 332.51-21.75 332.99-20.25 333.46-18.75 333.46-16.9L333.46-16.9 333.46-3.4Q333.46-2.75 333.56-2.4 333.66-2.05 334.19-1.73 334.71-1.4 335.76-1.4L335.76-1.4 336.66-1.4ZM329.46-6.8L329.46-6.8 329.46-12.9Q325.56-12.15 322.21-9.9 318.86-7.65 318.86-5L318.86-5Q318.86-3.95 319.89-3.18 320.91-2.4 322.44-2.4 323.96-2.4 326.06-3.78 328.16-5.15 329.46-6.8ZM364.36-1.4L364.36 0 354.56 0 354.56-1.4 355.06-1.4Q355.66-1.4 355.66-1.7 355.66-2 354.96-3.1L354.96-3.1 350.86-10.2 346.96-3.3Q346.26-2.2 346.26-1.8 346.26-1.4 347.46-1.4L347.46-1.4 348.26-1.4 348.26 0 338.86 0 338.86-1.4 340.26-1.4Q342.91-1.4 344.66-4.1L344.66-4.1 349.66-12.2 344.86-20Q343.66-21.9 341.06-21.9L341.06-21.9 340.36-21.9 340.36-23.3 350.06-23.3 350.06-21.9 349.56-21.9Q348.96-21.9 348.96-21.58 348.96-21.25 349.36-20.6L349.36-20.6 352.26-15.7 355.16-20.6Q355.26-20.8 355.36-21.03 355.46-21.25 355.51-21.35 355.56-21.45 355.56-21.5L355.56-21.5Q355.56-21.9 354.56-21.9L354.56-21.9 354.06-21.9 354.06-23.3 362.86-23.3 362.86-21.9 361.56-21.9Q358.91-21.9 358.06-20.6L358.06-20.6 353.46-13.7 359.26-3.8Q360.11-2.35 360.94-1.88 361.76-1.4 363.06-1.4L363.06-1.4 364.36-1.4Z" opacity="1" transform="matrix(1,0,0,1,0,0)" fill="#d498ca" class="slogan-text-1" data-fill-palette-color="secondary" id="text-1"></path></svg></g></svg></g></svg></g></svg></g></svg></g></svg></g></svg></g></svg></g><defs></defs></svg><rect width="395.52" height="247.2" fill="none" stroke="none" visibility="hidden"></rect></g></svg></g></svg>